<svg width="383" height="2949" viewBox="0 0 383 2949" fill="none" xmlns="http://www.w3.org/2000/svg">
<rect y="282.607" width="382" height="2666.06" fill="#E2F6F6"/>
<path fill-rule="evenodd" clip-rule="evenodd" d="M0 0L15.9473 6.53426C31.8945 12.2517 63.789 23.6867 95.6836 41.6559C127.578 58.8083 159.473 82.495 191.633 111.899C223.527 141.303 255.422 176.425 287.316 194.394C319.211 212.363 351.106 212.363 367.053 212.363H383L383 282.607H367.053C351.106 282.607 319.211 282.607 287.316 282.607C255.422 282.607 223.527 282.607 191.633 282.607C159.473 282.607 127.578 282.607 95.6836 282.607C63.789 282.607 31.8945 282.607 15.9473 282.607H0L0 0Z" fill="#E2F6F6"/>
</svg>
