<svg width="1652" height="1601" viewBox="0 0 1652 1601" fill="none" xmlns="http://www.w3.org/2000/svg">
<rect x="-1" y="142.115" width="1651.94" height="1206.1" rx="30" fill="#E2F6F6"/>
<path fill-rule="evenodd" clip-rule="evenodd" d="M1652 1601L1583.22 1594.31C1514.43 1588.46 1376.87 1576.76 1239.3 1558.36C1101.74 1540.81 964.171 1516.56 825.459 1486.47C687.893 1456.37 550.327 1420.42 412.761 1402.03C275.195 1383.64 137.63 1383.64 68.8467 1383.64L0.063763 1383.64L0.0637683 1311.74L68.8467 1311.74C137.63 1311.74 275.195 1311.74 412.761 1311.74C550.327 1311.74 687.893 1311.74 825.459 1311.74C964.171 1311.74 1101.74 1311.74 1239.3 1311.74C1376.87 1311.74 1514.43 1311.74 1583.22 1311.74L1652 1311.74L1652 1601Z" fill="#E2F6F6"/>
<path fill-rule="evenodd" clip-rule="evenodd" d="M-1 0L67.7829 3.95472C136.566 7.4151 274.132 14.3359 411.697 25.2113C549.263 35.5925 686.829 49.9283 825.541 67.7246C963.107 85.5208 1100.67 106.777 1238.24 117.653C1375.8 128.528 1513.37 128.528 1582.15 128.528H1650.94V171.042H1582.15C1513.37 171.042 1375.8 171.042 1238.24 171.042C1100.67 171.042 963.107 171.042 825.541 171.042C686.829 171.042 549.263 171.042 411.697 171.042C274.132 171.042 136.566 171.042 67.7829 171.042H-1L-1 0Z" fill="#E2F6F6"/>
</svg>
