<svg width="1440" height="1404" viewBox="0 0 1440 1404" fill="none" xmlns="http://www.w3.org/2000/svg">
<path fill-rule="evenodd" clip-rule="evenodd" d="M675.361 1400.15C545.633 1374.5 509.849 1204.2 395.166 1140.01C231.099 1048.18 -23.4223 1103.23 -126.827 951.149C-224.506 807.486 -176.364 590.556 -69.6528 456.376C34.6101 325.275 258.654 368.764 405.468 281.836C525.057 211.029 557.42 26.0012 696.822 2.55089C835.541 -20.7845 943.167 122.503 1076.65 168.931C1233.68 223.551 1481.06 152.964 1548.28 298.707C1619.6 453.378 1367.55 582.599 1343.91 748.459C1324.57 884.134 1498.37 1026.93 1427.61 1145.34C1358.3 1261.32 1166.81 1221.53 1034.4 1266.38C910.763 1308.26 805.053 1425.78 675.361 1400.15Z" fill="url(#paint0_linear_25_465)"/>
<defs>
<linearGradient id="paint0_linear_25_465" x1="551.619" y1="1378.83" x2="788.388" y2="7.7502" gradientUnits="userSpaceOnUse">
<stop stop-color="#E2F6F6"/>
<stop offset="1" stop-color="#FBE6EA"/>
</linearGradient>
</defs>
</svg>
